<svg version="1.1" id="Layer_1" xmlns="http://www.w3.org/2000/svg" xmlns:xlink="http://www.w3.org/1999/xlink" x="0px" y="0px"
	 width="100%" viewBox="0 0 816 768" enable-background="new 0 0 816 768" xml:space="preserve">
<path fill="#000000" opacity="1.000000" stroke="none" 
	d="
M229.832581,566.000000 
	C229.825958,478.676758 229.819733,391.853485 229.812302,305.030243 
	C229.811676,297.897186 229.807877,297.905884 236.970337,297.900208 
	C247.635635,297.891724 258.301025,297.886902 268.966156,297.836334 
	C270.769287,297.827789 272.633026,298.114319 274.319855,297.259247 
	C275.087646,293.854523 271.975922,291.088287 273.875824,286.995636 
	C275.428619,283.650665 276.861359,282.833160 279.848389,282.863281 
	C282.719971,282.892242 285.134216,281.674774 286.874268,279.575317 
	C290.925659,274.687042 295.863861,270.835785 298.839386,264.640533 
	C301.910065,258.247040 307.672974,252.994690 315.009277,250.464539 
	C316.027618,250.113312 317.395325,250.178009 317.847534,248.783478 
	C291.010956,238.475662 289.221191,228.706787 300.565369,207.965271 
	C302.622925,207.116577 302.792542,209.524078 304.379883,210.135895 
	C309.002289,207.279266 313.764465,204.108368 319.823059,204.746017 
	C325.873901,205.382843 330.430969,208.224518 333.431732,213.901733 
	C329.202332,216.337173 330.891418,219.491669 332.707214,222.464127 
	C333.647308,224.003159 335.106934,225.219376 336.292358,226.615005 
	C340.061646,231.052551 340.245667,234.007538 337.153107,238.785385 
	C336.467377,239.844894 335.184387,240.586639 335.282318,242.707886 
	C344.283447,237.564819 350.887726,230.741455 355.119293,221.605927 
	C355.866577,219.992661 355.227600,218.732361 354.415710,217.415192 
	C353.380920,215.736420 352.093506,214.147659 352.126251,211.647369 
	C354.083954,210.759537 355.909210,209.675598 355.948517,206.824905 
	C355.989807,203.833633 358.176392,204.021622 360.269531,204.847122 
	C363.911102,206.283295 365.935333,211.587845 364.156708,215.076355 
	C361.956909,219.390930 360.207397,223.834061 358.963654,228.549622 
	C357.543030,233.935730 354.683777,238.752243 350.698181,242.627884 
	C348.190033,245.066849 347.295868,247.318481 348.887207,250.497437 
	C350.549866,253.818787 349.395721,255.975800 345.855377,256.736633 
	C341.549805,257.661926 340.795441,260.118134 341.909332,264.091156 
	C343.703583,270.490845 345.297180,276.959137 346.643921,283.467102 
	C347.412384,287.180725 349.354797,287.555756 352.352692,286.427185 
	C352.508606,286.368439 352.659424,286.293915 352.818329,286.245483 
	C362.405640,283.323364 364.888336,285.754028 362.630554,295.778046 
	C360.518250,305.156342 357.036896,313.958679 351.080627,321.555359 
	C348.663483,324.638214 347.808105,328.402649 345.720154,331.621155 
	C344.490540,333.516479 345.048645,336.157837 346.024292,338.379425 
	C346.425568,339.293243 346.932678,340.161133 347.322693,341.079224 
	C349.491608,346.184753 348.745514,349.773071 345.303589,350.906250 
	C341.907654,352.024384 337.926605,349.277100 336.471893,344.641083 
	C335.174652,340.506866 336.461761,335.942505 334.453400,331.898987 
	C334.088104,331.163513 333.844177,330.367767 333.543243,329.597260 
	C331.618317,329.126221 329.692352,329.688293 329.119110,331.153717 
	C326.530060,337.772705 320.043579,340.766083 315.910278,345.906342 
	C312.818237,349.751648 309.384033,353.164825 308.858002,358.728851 
	C308.542175,362.069611 309.362854,364.027100 311.509827,366.123810 
	C314.256866,368.806458 316.270081,371.383606 311.305176,374.290588 
	C308.100983,376.166656 310.171448,379.554413 310.796814,382.014099 
	C313.457581,392.479126 316.494202,402.848328 319.369080,413.259277 
	C330.655121,454.129974 341.970551,494.992615 353.192535,535.880920 
	C357.504730,551.592834 361.576965,567.370422 365.818207,583.101990 
	C366.234863,584.647461 366.283997,586.418335 368.060791,588.044434 
	C370.370483,582.445435 371.539032,576.835388 373.063782,571.331726 
	C380.258636,545.361572 387.450592,519.390259 394.756378,493.451111 
	C405.443207,455.507690 416.193573,417.582001 427.031342,379.681519 
	C427.888824,376.682648 427.541656,374.906494 424.474548,373.877869 
	C419.979736,372.370483 420.519836,369.701294 422.887421,366.612152 
	C427.114410,361.096954 427.194702,357.465240 423.299286,351.576141 
	C420.705200,347.654388 417.398651,344.351288 413.997498,341.165710 
	C410.848053,338.215973 407.213196,335.742737 405.930267,331.253998 
	C405.474365,329.658813 404.067657,328.789062 402.487823,328.795563 
	C400.441101,328.803955 400.612396,330.743500 400.084961,332.071198 
	C399.133942,334.465179 399.116333,336.961243 399.189758,339.460022 
	C399.249420,341.490326 399.004700,343.447632 398.253418,345.335419 
	C396.545624,349.626740 392.635162,352.283905 389.471710,350.924561 
	C384.965668,348.988281 385.868103,344.693787 387.335571,341.916199 
	C391.496674,334.040039 388.103455,328.189575 383.735016,322.005432 
	C379.705841,316.301514 376.068665,310.275879 374.396179,303.343964 
	C373.514130,299.688171 371.717926,296.733582 368.984009,294.042542 
	C365.146179,290.264923 365.924927,287.281219 370.631775,284.575043 
	C376.068726,281.449127 381.282959,283.659790 386.344177,285.110168 
	C388.113007,284.149750 388.202026,282.549225 388.577026,281.148010 
	C389.609070,277.291687 390.216034,273.282288 391.622589,269.572906 
	C395.714203,258.782501 395.597565,249.829071 384.400665,242.678299 
	C378.833313,239.122772 376.558167,232.048157 374.801605,225.540421 
	C373.750916,221.647827 372.422119,217.958221 370.329865,214.492737 
	C368.074799,210.757507 371.843323,204.586945 376.222931,204.471832 
	C377.945984,204.426544 378.946075,205.298401 378.898010,206.714081 
	C378.802765,209.518600 380.599426,210.765686 382.542175,211.674881 
	C382.542175,212.361465 382.681091,212.798981 382.522095,212.995483 
	C376.768219,220.106995 380.820099,225.662842 385.477783,230.993103 
	C389.488922,235.583450 393.712311,239.987579 399.537659,242.703918 
	C399.997162,240.748901 398.575195,240.063187 397.872986,239.076553 
	C394.484253,234.315475 394.411926,230.741592 398.404572,226.538437 
	C401.127808,223.671631 403.170837,220.589203 404.215729,216.374237 
	C404.458710,214.742279 401.384338,215.610275 401.511658,213.714478 
	C407.551208,204.315796 417.079620,201.784195 427.321320,207.443283 
	C431.409149,209.702042 435.317902,210.958298 440.011932,210.804337 
	C446.422211,210.594055 450.070190,214.011520 451.367737,220.402176 
	C452.575165,226.348892 452.064514,232.359863 452.082001,238.345917 
	C452.093781,242.371979 452.010071,246.358368 454.869141,249.637039 
	C448.718292,253.295990 440.399872,249.153320 438.849548,241.850510 
	C438.142487,238.520020 438.302582,235.228180 439.650391,232.048599 
	C441.008728,228.844086 441.203064,225.665695 438.898682,221.108719 
	C440.022705,238.427933 429.762604,244.737686 416.206512,248.233826 
	C428.277191,255.504913 434.514435,268.029449 444.678314,276.695557 
	C448.291321,279.776123 451.214447,283.270233 456.479553,283.139496 
	C458.025635,283.101135 459.394501,283.371399 460.145782,285.598755 
	C461.581451,289.855042 462.664734,293.699677 457.567902,297.593781 
	C460.361572,297.727234 462.266876,297.894714 464.172394,297.896667 
	C475.004425,297.907776 485.839203,298.016205 496.667053,297.795349 
	C500.851624,297.710052 502.301453,299.329285 502.210632,303.365662 
	C502.041962,310.860901 502.172638,318.362793 502.172028,325.861908 
	C502.163513,429.183411 502.153931,532.504883 502.143799,635.826416 
	C502.143646,637.326172 502.124481,638.825867 502.129028,640.325623 
	C502.136902,642.932739 501.017670,644.359985 498.239502,644.349609 
	C488.241028,644.312317 478.242157,644.303467 468.243744,644.346191 
	C465.523254,644.357788 464.264069,643.058655 464.189941,640.438599 
	C464.147522,638.939880 464.106018,637.440552 464.105408,635.941467 
	C464.069824,551.284851 464.033081,466.628265 464.020172,381.971680 
	C464.019348,376.675842 464.925964,371.366669 463.734985,365.971161 
	C461.950745,366.651031 462.134064,368.383270 461.774231,369.631744 
	C453.019989,400.003235 444.309357,430.387421 435.644226,460.784515 
	C425.155121,497.579926 414.724396,534.392029 404.250305,571.191711 
	C397.826538,593.760925 391.300812,616.301575 384.989624,638.902161 
	C383.866028,642.925659 381.986572,644.608032 377.648010,644.428345 
	C369.662720,644.097534 361.644104,644.097473 353.658966,644.430054 
	C349.465973,644.604675 347.828613,642.945190 346.786041,639.108582 
	C339.150726,611.011658 331.411438,582.942261 323.552124,554.907104 
	C315.200562,525.115967 306.588806,495.397644 298.258606,465.600586 
	C288.629425,431.157196 279.184937,396.662231 269.649384,362.192657 
	C269.439911,361.435425 269.099335,360.714478 268.707977,359.681061 
	C267.380219,361.459015 267.941162,363.126404 267.940552,364.653778 
	C267.904663,453.475800 267.903473,542.297791 267.889130,631.119812 
	C267.888885,632.784180 267.798218,634.450012 267.703735,636.112610 
	C267.233704,644.385132 267.228271,644.374939 258.650909,644.357910 
	C251.151901,644.342957 243.642700,644.116516 236.157410,644.436768 
	C231.228256,644.647644 229.828735,642.612488 229.850327,637.990112 
	C229.961655,614.160645 229.859985,590.330139 229.832581,566.000000 
M303.504272,276.298431 
	C299.894257,278.971527 296.485718,281.992615 292.622986,284.229279 
	C287.837311,287.000366 285.897034,291.247711 284.607117,296.185394 
	C286.397247,297.842316 288.479645,298.881683 289.130463,301.450348 
	C292.107758,313.201416 295.241882,324.913147 298.377045,336.623627 
	C298.995392,338.933105 299.267822,341.482513 301.694550,343.316528 
	C304.631714,339.691345 307.471497,336.272583 310.190521,332.760315 
	C310.758698,332.026337 311.206512,330.928650 311.154755,330.030518 
	C310.877747,325.222351 312.539337,320.899750 314.277802,316.590179 
	C315.245636,314.190979 313.657288,304.135162 311.485992,303.070374 
	C308.929413,301.816650 309.810913,300.526398 310.188080,298.675507 
	C311.672943,291.388916 313.199799,284.095490 313.659363,276.590454 
	C311.604980,276.378784 311.710144,279.081635 309.805420,278.806030 
	C307.528137,278.782440 307.042358,274.838348 303.504272,276.298431 
M438.656891,313.415833 
	C433.407806,315.823334 427.268250,316.175812 423.585419,322.011230 
	C421.678253,325.033142 421.109955,326.905365 422.875793,329.943054 
	C426.377441,335.966827 432.152954,340.282623 434.404083,346.850708 
	C436.352600,346.349731 436.451996,345.287872 436.725891,344.357422 
	C440.667023,330.967773 444.740845,317.614716 448.450562,304.161224 
	C449.425995,300.623810 449.970001,297.325043 454.925568,296.735443 
	C450.769226,297.887878 449.985504,295.069275 449.308716,292.781860 
	C448.192657,289.009766 445.803802,286.654480 442.600525,284.531464 
	C436.369171,280.401550 430.255646,276.062897 425.401581,270.214233 
	C424.337372,268.931976 423.268768,267.088226 420.434509,267.951691 
	C419.974823,273.642578 419.910065,279.389038 422.933624,284.612366 
	C427.573120,292.627228 433.404114,299.681061 441.465637,304.472382 
	C445.067780,306.613281 444.756287,308.538635 442.064270,310.943665 
	C441.198486,311.717133 440.242523,312.389740 438.656891,313.415833 
M397.551392,322.877899 
	C399.018524,318.364075 396.814209,315.133148 393.938019,312.123840 
	C394.109375,315.912445 394.395782,319.647217 397.551392,322.877899 
M336.329773,321.048615 
	C336.519470,323.998840 338.084686,323.321075 338.770966,321.616943 
	C339.932709,318.732208 341.222809,315.697235 340.258850,311.338318 
	C337.741272,314.499329 337.645020,317.700256 336.329773,321.048615 
z"/>
</svg>